<svg xmlns="http://www.w3.org/2000/svg" viewBox="0 0 32 32"><style>.st0{display:none}.st1{fill:#e9343f}.st1,.st2,.st3{display:inline}.st3{fill:#e83540}.st4{fill:#e9343f}</style><g id="Layer_1" class="st0"><path class="st1" d="M8.1 19l.1-9-1.1-.7.1-.5 8.7-7 9.8 7.5-.9.4-.5.1v9.5H8z"/><path class="st2" d="M22.6 8.9l-5.7-4.3c-.4-.3-.9-.3-1.3 0L9.8 8.9c-.2.1-.2.4-.1.6.2.2.4.2.7.1l5.7-4.3h.2L22 9.6c.1.1.2.1.3.1.1 0 .3-.1.4-.2.1-.2.1-.5-.1-.6zm9 10h-6.4c-.4 0-.3-.3-.3-.3v-8.2s0-.2.2-.2h.9c.4 0 .6-.2.7-.4.1-.2 0-.5-.3-.8l-1.8-1.4c-.1-.1-.1-.2-.1-.2V4.3c0-.5-.4-.9-.9-.9h-2.1c-.5 0-.9.4-.9.9v.1c0 .2-.1.1-.1.1l-3.8-3c-.2-.1-.4-.2-.6-.2-.2 0-.4.1-.6.2L5.9 8.9c-.3.3-.3.6-.2.8.1.2.3.4.7.4h1c.2 0 .2.2.2.2v8.3s0 .2-.3.2H.5c-.2 0-.4.2-.4.4v11.1c0 .2.2.4.4.4h.4c.2 0 .4-.2.4-.4v-9.9c0-.2.2-.4.4-.4H30.5c.2 0 .4.2.4.4v9.9c0 .2.2.4.4.4h.4c.2 0 .4-.2.4-.4v-11c-.1-.2-.3-.4-.5-.4zM21.8 4.6c0-.1.1-.1 0 0l1.5-.1s.1 0 .1.1v1.7c0 .1-.1.1-.1.1l-1.4-1.2v-.1c-.1 0-.1-.4-.1-.5zM14.7 16s0-.7.4-1.1c.2-.2.6-.4 1-.4 1.4 0 1.5 1.2 1.5 1.5v2.6s0 .2-.3.2h-2.4c-.2 0-.2-.2-.2-.2v-2.1-.5zm4.3 2.9c-.3 0-.3-.2-.3-.2v-2-.6c0-.1 0-1.2-.8-1.9-.5-.5-1.1-.7-1.9-.7-.8 0-1.4.2-1.8.7-.7.8-.7 1.8-.7 2v2.7s0 .2-.2.2H8.8c-.2 0-.2-.2-.2-.2v-9c0-.4-.3-.8-.8-.9-.1 0 0-.1 0-.1L16 2.6s.1-.1.2-.1.2.1.2.1l8.1 6.3s.2.1 0 .2c-.4.1-.7.4-.7.9v8.7s0 .3-.3.3c-1.2-.1-3.3-.1-4.5-.1zm9.6 6.5h-3c-.2 0-.5.1-.6.3L23 28c-.1.2-.3.1-.4-.1l-1-2.8c-.1-.2-.3-.3-.5-.3l-2.7.5c-.2 0-.4-.1-.4-.3l-.6-3.3c0-.2-.2-.2-.3-.1l-4.9 6.3c-.1.2-.3.1-.3-.1l-1.6-5.2c-.1-.2-.2-.2-.4-.1l-2.5 2.9c-.1.2-.4.3-.6.3H3.6c-.2 0-.4.2-.4.4v.2c0 .2.2.4.4.4h3.7c.2 0 .5-.1.6-.3l1.7-1.9c.1-.2.3-.1.4.1l1.6 5.4c.1.2.2.2.3.1l4.7-6c.1-.2.3-.1.3.1l.4 2.1c0 .2.2.4.4.3l2.8-.5c.2 0 .4.1.5.3l1.2 3.6c.1.2.2.2.4.1l2.7-3.3c.1-.2.4-.3.6-.3h2.6c.2 0 .4-.2.4-.4v-.2c.1-.4-.1-.5-.3-.5z"/></g><g id="Layer_2" class="st0"><path class="st3" d="M13.5 11.6c0 1.2-1 2.1-2.1 2.1s-2.1-1-2.1-2.1 1-2.1 2.1-2.1 2.1.9 2.1 2.1zm-2.2 4.5c-1.2 0-2.1 1-2.1 2.1s1 2.1 2.1 2.1 2.1-1 2.1-2.1-.9-2.1-2.1-2.1zm.1 6.5c-1.2 0-2.1 1-2.1 2.1s1 2.1 2.1 2.1 2.1-1 2.1-2.1-.9-2.1-2.1-2.1z"/><path class="st2" d="M16.1 1.7c-.8 0-1.4.6-1.4 1.4s.6 1.4 1.4 1.4c.8 0 1.4-.6 1.4-1.4s-.6-1.4-1.4-1.4zm0 1.9c-.2 0-.4-.2-.4-.4s.2-.4.4-.4.4.2.4.4-.2.4-.4.4zm11.1.4h-5.9v-.7c0-.3-.2-.5-.5-.5h-1.6C19 1.2 17.7 0 16.1 0s-3 1.2-3.1 2.8h-1.6c-.3 0-.5.2-.5.5V4h-6c-.8 0-1.4.6-1.4 1.3v25.4c0 .7.6 1.3 1.3 1.3h22.4c.7 0 1.3-.6 1.3-1.3V5.3c0-.7-.6-1.3-1.3-1.3zm-15.3-.2h1.6c.1 0 .3-.1.4-.2.1-.1.1-.2.1-.4v-.1C14 1.9 15 1 16.1 1c1.2 0 2.1 1 2.1 2.1v.1c0 .1 0 .3.1.4.1.1.2.2.4.2h1.6V6h-8.4V3.8zm15.6 26.9c0 .2-.1.3-.3.3H4.8c-.2 0-.3-.1-.3-.3V5.3c0-.1.1-.3.3-.3h6v1H6.2c-.3 0-.5.2-.5.5v22.8c0 .3.2.5.5.5h3.7c.3 0 .5-.2.5-.5s-.2-.5-.5-.5H6.7V7.1H25.4v21.8H11.8c-.3 0-.5.2-.5.5s.2.5.5.5h14c.3 0 .5-.2.5-.5V6.6c0-.3-.2-.5-.5-.5h-4.6V5h5.9c.2 0 .3.1.3.3v25.4zM10.7 12.5c.1.1.2.1.3.1.1 0 .3 0 .3-.1l1.1-1c.2-.2.2-.5 0-.7s-.5-.2-.7 0l-.7.6-.3-.3c-.2-.2-.5-.2-.7 0-.2.2-.2.5 0 .7l.7.7zm.6 1.8c1.6 0 2.8-1.3 2.8-2.8s-1.3-2.8-2.8-2.8c-1.6 0-2.8 1.3-2.8 2.8s1.2 2.8 2.8 2.8zm0-4.6c1 0 1.8.8 1.8 1.8s-.8 1.8-1.8 1.8-1.8-.8-1.8-1.8.8-1.8 1.8-1.8zm-.6 9.3c.1.1.2.1.3.1.1 0 .3 0 .3-.1l1.1-1c.2-.2.2-.5 0-.7-.2-.2-.5-.2-.7 0l-.7.7-.3-.3c-.2-.2-.5-.2-.7 0-.2.2-.2.5 0 .7l.7.6zm.6 1.9c1.6 0 2.8-1.3 2.8-2.8 0-1.6-1.3-2.8-2.8-2.8-1.6 0-2.8 1.3-2.8 2.8-.1 1.5 1.2 2.8 2.8 2.8zm0-4.6c1 0 1.8.8 1.8 1.8s-.8 1.8-1.8 1.8-1.8-.8-1.8-1.8.8-1.8 1.8-1.8zm.5 7.5l-.8.7-.3-.3c-.2-.2-.5-.2-.7 0-.2.2-.2.5 0 .7l.6.6c.1.1.2.1.3.1.1 0 .3 0 .3-.1l1.1-1c.2-.2.2-.5 0-.7 0-.1-.3-.2-.5 0zm2.3.8c0-1.6-1.3-2.8-2.8-2.8-1.6 0-2.8 1.3-2.8 2.8s1.3 2.8 2.8 2.8c1.5.1 2.8-1.2 2.8-2.8zm-2.8 1.9c-1 0-1.8-.8-1.8-1.8s.8-1.8 1.8-1.8 1.8.8 1.8 1.8c0 .9-.8 1.8-1.8 1.8zm4.4-15.8h3.8c.3 0 .5-.2.5-.5s-.2-.5-.5-.5h-3.8c-.3 0-.5.2-.5.5s.2.5.5.5zm0 2.1h7.2c.3 0 .5-.2.5-.5s-.2-.5-.5-.5h-7.2c-.3 0-.5.2-.5.5s.2.5.5.5zm0 4.7h3.8c.3 0 .5-.2.5-.5s-.2-.5-.5-.5h-3.8c-.3 0-.5.2-.5.5s.2.5.5.5zm0 2.1h7.2c.3 0 .5-.2.5-.5s-.2-.5-.5-.5h-7.2c-.3 0-.5.2-.5.5s.2.5.5.5zm0 4.5h3.8c.3 0 .5-.2.5-.5s-.2-.5-.5-.5h-3.8c-.3 0-.5.2-.5.5s.2.5.5.5zm0 2.1h7.2c.3 0 .5-.2.5-.5s-.2-.5-.5-.5h-7.2c-.3 0-.5.2-.5.5s.2.5.5.5z"/></g><g id="Layer_3"><path class="st4" d="M1.3 18.2h29.2v11.9H1.3z"/><path d="M32 18.5v-4.1H21.7v-.5c0-1.8-1.4-3.4-3.2-3.6.7-.7 1.1-1.6 1.1-2.6V3.6c0-.9-.7-1.6-1.6-1.6-.4 0-.7.1-1 .3-.4-.2-.8-.3-1.2-.3h-1.1c-1.3 0-2.3 1-2.3 2.3v3.4c0 1 .4 1.9 1.1 2.6-1.8.2-3.2 1.7-3.2 3.6v.5H0v4.1h1v11.4H0V34h32v-4.1h-1V18.5h1zM13.4 4.3c0-.7.6-1.3 1.3-1.3h1.1c.3 0 .6.1.9.4l.3.4.6-.6c.1-.1.2-.2.4-.2.3 0 .6.3.6.6v1.9c-.5-.2-1-.6-1.2-.8l-.4-.3-.4.4S15.4 6 13.4 6.2V4.3zm0 3.4v-.6c1.8-.1 3-.9 3.6-1.4.3.3.9.7 1.6.8v1.1c0 1.4-1.2 2.6-2.6 2.6s-2.6-1.1-2.6-2.5zm-2 6.2c0-1.4 1.2-2.6 2.6-2.6h4.1c1.4 0 2.6 1.2 2.6 2.6v.5h-1.5v-1h-1v1h-4.1v-1h-1v1h-1.5v-.5zM31 33H1v-2.1h30V33zM2.1 29.9V18.5h2.6v11.4H2.1zm3.6 0V18.5h2.6v11.4H5.7zm3.6 0V18.5h2.6v11.4H9.3zm3.6 0V18.5h2.6v11.4h-2.6zm3.6 0V18.5h2.6v11.4h-2.6zm3.6 0V18.5h2.6v11.4h-2.6zm7.3-10.4v-1H30v11.4h-2.6v-9.3h-1v9.3h-2.6V18.5h2.6v1h1zM1 17.5v-2.1h30v2.1H1zm27.9-7.2c0 1.4-.5 2.3-.5 2.3l.9.5s.6-1.2.6-2.8c0-.9-.3-1.6-.6-2.3-.2-.6-.5-1.2-.5-1.9 0-1.3.9-2.2.9-2.2l-.4-.4-.4-.4S27.7 4.3 27.7 6c0 .9.3 1.6.6 2.3.4.7.6 1.3.6 2zm-26.3 0c0 1.4-.5 2.3-.5 2.3l.9.5s.6-1.2.6-2.8c0-.9-.3-1.6-.6-2.3-.2-.6-.4-1.2-.4-1.9 0-1.3.9-2.2.9-2.2l-.4-.4-.4-.3S1.5 4.4 1.5 6.1c0 .9.3 1.6.6 2.3.2.6.5 1.2.5 1.9zm4.1 0c0 1.4-.5 2.3-.5 2.3l.9.5s.6-1.2.6-2.8c0-.9-.3-1.6-.6-2.3-.2-.6-.4-1.2-.4-1.9 0-1.3.9-2.2.9-2.2l-.4-.4-.3-.3S5.7 4.4 5.7 6.1c0 .9.3 1.6.5 2.3.3.6.5 1.2.5 1.9zm18.1 0h1c0-.9-.3-1.6-.6-2.3-.2-.6-.5-1.2-.5-1.9 0-1.3.9-2.2.9-2.2l-.4-.4-.4-.4S23.6 4.3 23.6 6c0 .9.3 1.6.6 2.3.3.7.6 1.3.6 2zm-.5 2.3l.9.5s.3-.7.5-1.7l-1-.2c-.1.9-.4 1.4-.4 1.4z"/></g></svg>